HIERARCHY
ROOT pelvis
{
	OFFSET 0.003123 -0.351407 0.012037
	CHANNELS 6 Xposition Yposition Zposition Zrotation Yrotation Xrotation 
	JOINT left_hip
	{
		OFFSET 0.058189 -0.092763 -0.026001
		CHANNELS 3 Zrotation Yrotation Xrotation
		JOINT left_knee
		{
			OFFSET 0.054695 -0.378753 -0.009396
			CHANNELS 3 Zrotation Yrotation Xrotation
			JOINT left_ankle
			{
				OFFSET -0.043453 -0.403059 -0.031876
				CHANNELS 3 Zrotation Yrotation Xrotation
				JOINT left_foot
				{
					OFFSET 0.047257 -0.057997 0.118216
					CHANNELS 3 Zrotation Yrotation Xrotation
					End Site
					{
						OFFSET 0.000000 0.000000 0.000000
					}
				}
			}
		}
	}
	JOINT right_hip
	{
		OFFSET -0.063267 -0.103908 -0.021250
		CHANNELS 3 Zrotation Yrotation Xrotation
		JOINT right_knee
		{
			OFFSET -0.044210 -0.362380 -0.016824
			CHANNELS 3 Zrotation Yrotation Xrotation
			JOINT right_ankle
			{
				OFFSET 0.015417 -0.410728 -0.020192
				CHANNELS 3 Zrotation Yrotation Xrotation
				JOINT right_foot
				{
					OFFSET -0.038812 -0.058328 0.119049
					CHANNELS 3 Zrotation Yrotation Xrotation
					End Site
					{
						OFFSET 0.000000 0.000000 0.000000
					}
				}
			}
		}
	}
	JOINT spine_1
	{
		OFFSET -0.002763 0.109891 -0.027618
		CHANNELS 3 Zrotation Yrotation Xrotation
		JOINT spine_2
		{
			OFFSET 0.009448 0.131853 -0.005940
			CHANNELS 3 Zrotation Yrotation Xrotation
			JOINT spine_3
			{
				OFFSET -0.011330 0.052235 0.028447
				CHANNELS 3 Zrotation Yrotation Xrotation
				JOINT neck
				{
					OFFSET -0.012164 0.165167 -0.031615
					CHANNELS 3 Zrotation Yrotation Xrotation
					JOINT head
					{
						OFFSET 0.024783 0.160452 0.020737
						CHANNELS 3 Zrotation Yrotation Xrotation
						End Site
						{
							OFFSET 0.000000 0.000000 0.000000
						}
					}
				}
				JOINT left_collar
				{
					OFFSET 0.046364 0.084944 -0.007220
					CHANNELS 3 Zrotation Yrotation Xrotation
					JOINT left_shoulder
					{
						OFFSET 0.119239 0.057728 -0.015461
						CHANNELS 3 Zrotation Yrotation Xrotation
						JOINT left_elbow
						{
							OFFSET 0.254123 -0.072151 -0.042459
							CHANNELS 3 Zrotation Yrotation Xrotation
							JOINT left_wrist
							{
								OFFSET 0.251987 0.023221 -0.002472
								CHANNELS 3 Zrotation Yrotation Xrotation
								JOINT left_index_1
								{
									OFFSET 0.101902 -0.008688 0.019351
									CHANNELS 3 Zrotation Yrotation Xrotation
									JOINT left_index_2
									{
										OFFSET 0.030149 -0.011154 0.001151
										CHANNELS 3 Zrotation Yrotation Xrotation
										JOINT left_index_3
										{
											OFFSET 0.006504 -0.021577 -0.002433
											CHANNELS 3 Zrotation Yrotation Xrotation
											End Site
											{
												OFFSET 0.000000 0.000000 0.000000
											}
										}
									}
								}
								JOINT left_middle_1
								{
									OFFSET 0.109398 -0.006328 -0.003981
									CHANNELS 3 Zrotation Yrotation Xrotation
									JOINT left_middle_2
									{
										OFFSET 0.026472 -0.015218 -0.004641
										CHANNELS 3 Zrotation Yrotation Xrotation
										JOINT left_middle_3
										{
											OFFSET 0.005022 -0.023347 -0.001911
											CHANNELS 3 Zrotation Yrotation Xrotation
											End Site
											{
												OFFSET 0.000000 0.000000 0.000000
											}
										}
									}
								}
								JOINT left_pinky_1
								{
									OFFSET 0.084047 -0.014539 -0.043750
									CHANNELS 3 Zrotation Yrotation Xrotation
									JOINT left_pinky_2
									{
										OFFSET 0.012124 -0.014448 -0.005375
										CHANNELS 3 Zrotation Yrotation Xrotation
										JOINT left_pinky_3
										{
											OFFSET 0.003798 -0.018853 0.000167
											CHANNELS 3 Zrotation Yrotation Xrotation
											End Site
											{
												OFFSET 0.000000 0.000000 0.000000
											}
										}
									}
								}
								JOINT left_ring_1
								{
									OFFSET 0.097444 -0.009268 -0.027345
									CHANNELS 3 Zrotation Yrotation Xrotation
									JOINT left_ring_2
									{
										OFFSET 0.023561 -0.016057 -0.001895
										CHANNELS 3 Zrotation Yrotation Xrotation
										JOINT left_ring_3
										{
											OFFSET 0.004257 -0.023548 0.000814
											CHANNELS 3 Zrotation Yrotation Xrotation
											End Site
											{
												OFFSET 0.000000 0.000000 0.000000
											}
										}
									}
								}
								JOINT left_thumb_1
								{
									OFFSET 0.040636 -0.017977 0.025611
									CHANNELS 3 Zrotation Yrotation Xrotation
									JOINT left_thumb_2
									{
										OFFSET 0.021637 -0.017639 0.011623
										CHANNELS 3 Zrotation Yrotation Xrotation
										JOINT left_thumb_3
										{
											OFFSET 0.024002 -0.008356 0.006548
											CHANNELS 3 Zrotation Yrotation Xrotation
											End Site
											{
												OFFSET 0.000000 0.000000 0.000000
											}
										}
									}
								}
							}
						}
					}
				}
				JOINT right_collar
				{
					OFFSET -0.047695 0.084339 -0.013400
					CHANNELS 3 Zrotation Yrotation Xrotation
					JOINT right_shoulder
					{
						OFFSET -0.102578 0.053524 -0.012669
						CHANNELS 3 Zrotation Yrotation Xrotation
						JOINT right_elbow
						{
							OFFSET -0.271150 -0.036492 -0.026467
							CHANNELS 3 Zrotation Yrotation Xrotation
							JOINT right_wrist
							{
								OFFSET -0.249267 -0.004533 -0.015325
								CHANNELS 3 Zrotation Yrotation Xrotation
								JOINT right_index_1
								{
									OFFSET -0.099881 -0.011783 0.019600
									CHANNELS 3 Zrotation Yrotation Xrotation
									JOINT right_index_2
									{
										OFFSET -0.030148 -0.011154 0.001151
										CHANNELS 3 Zrotation Yrotation Xrotation
										JOINT right_index_3
										{
											OFFSET -0.006505 -0.021577 -0.002432
											CHANNELS 3 Zrotation Yrotation Xrotation
											End Site
											{
												OFFSET 0.000000 0.000000 0.000000
											}
										}
									}
								}
								JOINT right_middle_1
								{
									OFFSET -0.107376 -0.009422 -0.003734
									CHANNELS 3 Zrotation Yrotation Xrotation
									JOINT right_middle_2
									{
										OFFSET -0.026472 -0.015218 -0.004641
										CHANNELS 3 Zrotation Yrotation Xrotation
										JOINT right_middle_3
										{
											OFFSET -0.005022 -0.023347 -0.001911
											CHANNELS 3 Zrotation Yrotation Xrotation
											End Site
											{
												OFFSET 0.000000 0.000000 0.000000
											}
										}
									}
								}
								JOINT right_pinky_1
								{
									OFFSET -0.082027 -0.017634 -0.043503
									CHANNELS 3 Zrotation Yrotation Xrotation
									JOINT right_pinky_2
									{
										OFFSET -0.012123 -0.014448 -0.005374
										CHANNELS 3 Zrotation Yrotation Xrotation
										JOINT right_pinky_3
										{
											OFFSET -0.003798 -0.018852 0.000167
											CHANNELS 3 Zrotation Yrotation Xrotation
											End Site
											{
												OFFSET 0.000000 0.000000 0.000000
											}
										}
									}
								}
								JOINT right_ring_1
								{
									OFFSET -0.095423 -0.012362 -0.027099
									CHANNELS 3 Zrotation Yrotation Xrotation
									JOINT right_ring_2
									{
										OFFSET -0.023561 -0.016057 -0.001895
										CHANNELS 3 Zrotation Yrotation Xrotation
										JOINT right_ring_3
										{
											OFFSET -0.004257 -0.023548 0.000816
											CHANNELS 3 Zrotation Yrotation Xrotation
											End Site
											{
												OFFSET 0.000000 0.000000 0.000000
											}
										}
									}
								}
								JOINT right_thumb_1
								{
									OFFSET -0.038613 -0.021074 0.025861
									CHANNELS 3 Zrotation Yrotation Xrotation
									JOINT right_thumb_2
									{
										OFFSET -0.021636 -0.017639 0.011623
										CHANNELS 3 Zrotation Yrotation Xrotation
										JOINT right_thumb_3
										{
											OFFSET -0.024004 -0.008353 0.006547
											CHANNELS 3 Zrotation Yrotation Xrotation
											End Site
											{
												OFFSET 0.000000 0.000000 0.000000
											}
										}
									}
								}
							}
						}
					}
				}
			}
		}
	}
}
MOTION
Frames: 4
Frame Time: 0.050000
-0.298660 1.017818 1.398346 152.139299 75.670739 147.590253 -9.547367 -1.183450 15.519996 -1.909954 -4.525389 -10.344197 19.227405 12.604217 46.048497 0.000000 0.000000 0.000000 -0.419715 -3.381294 -10.443703 -15.867517 -2.043023 17.946202 65.754391 -0.883891 32.324165 0.000000 0.000000 0.000000 7.068914 -2.284193 9.084295 -32.817309 -6.951263 -12.485591 38.277136 50.487229 32.020099 -1.864194 -2.124626 -5.967641 0.000000 0.000000 0.000000 -1.248771 -26.153620 -35.448999 -52.909390 35.876627 -31.356075 -54.594818 -6.515085 -3.853815 8.316100 1.184549 50.573387 -23.267010 11.501685 -1.022943 12.501200 11.053620 20.431328 0.000000 0.000000 0.000000 -15.585044 5.208184 -2.301036 -27.734069 38.021149 21.432472 0.000000 0.000000 0.000000 47.365927 8.587478 -4.482561 87.526768 28.161661 -167.898660 0.000000 0.000000 0.000000 1.668097 9.639708 -1.594621 -62.921767 54.952389 13.051315 0.000000 0.000000 0.000000 -4.776234 19.292289 12.767977 5.692281 -7.781589 -6.934259 0.000000 0.000000 0.000000 15.318887 -25.454706 38.856833 37.082774 47.162660 25.204537 3.070693 18.694609 -0.287114 -7.523279 3.357735 -32.633589 28.489341 -26.174343 -4.365320 43.105551 42.491915 -9.868637 0.000000 0.000000 0.000000 51.084230 14.634695 4.918190 18.971788 13.910380 -18.573019 0.000000 0.000000 0.000000 13.689897 42.463387 -35.293512 14.237214 -7.083393 11.476536 0.000000 0.000000 0.000000 43.757096 29.145758 2.911943 1.898427 7.876074 -16.945640 0.000000 0.000000 0.000000 4.490831 -19.625725 14.469051 -42.806891 10.095882 11.348848 0.000000 0.000000 0.000000 
-0.298660 1.021042 1.382507 153.864630 69.604090 150.335876 -11.865363 -0.758688 14.441170 -1.845429 -5.186847 -10.430218 17.611550 11.547431 41.600554 0.000000 0.000000 0.000000 -4.075595 -5.673781 -10.772233 -14.942338 -1.774961 16.308057 63.643751 -1.408389 31.166284 0.000000 0.000000 0.000000 6.782273 -2.657708 7.834609 -40.240042 -11.426403 -6.504139 42.188653 49.319743 24.845326 -3.179305 -3.559489 -1.976859 0.000000 0.000000 0.000000 -5.953258 -28.805030 -37.300209 -50.545532 38.463023 -24.880821 -46.193679 -5.962449 -2.548936 -0.381637 2.143917 49.860731 -22.390451 10.052890 0.268929 48.591396 69.758374 110.463396 0.000000 0.000000 0.000000 -45.677721 42.830554 -9.603312 -89.712674 47.264717 -6.269842 0.000000 0.000000 0.000000 168.846944 0.338321 103.326637 -13.897091 8.626450 82.244617 0.000000 0.000000 0.000000 -153.127211 49.661778 176.898021 -101.086576 23.208444 32.691042 0.000000 0.000000 0.000000 -30.973839 10.854272 -1.254693 57.056825 19.817061 -22.847730 0.000000 0.000000 0.000000 12.113409 -20.345089 38.906155 45.843616 41.579464 30.440564 -3.692142 15.756868 -1.406581 -5.324543 8.931874 -36.368358 29.801126 -8.736792 -1.574112 23.608090 36.261569 -24.634391 0.000000 0.000000 0.000000 48.046695 12.153408 3.227448 2.193494 22.384865 -53.723507 0.000000 0.000000 0.000000 45.706879 33.828129 -13.202052 -34.947554 1.120508 -7.601295 0.000000 0.000000 0.000000 46.184156 31.806255 2.732863 -11.534793 3.295548 -17.674136 0.000000 0.000000 0.000000 3.615369 22.604914 10.199403 -13.524820 -21.923240 33.419424 0.000000 0.000000 0.000000 
-0.293007 1.014595 1.377228 151.357099 72.214704 146.900240 -12.519035 -0.411772 13.788122 -0.188009 -4.876379 -11.902455 22.126992 10.675138 45.776371 0.000000 0.000000 0.000000 -3.182387 -4.784854 -10.131901 -16.146780 -1.556957 16.300626 62.378561 -1.785380 32.885761 0.000000 0.000000 0.000000 10.136937 -3.660828 10.028338 -37.073079 -8.913255 -11.653652 39.536869 51.177525 29.022776 -5.013690 -5.334348 0.553879 0.000000 0.000000 0.000000 -4.691038 -29.783747 -40.772939 -57.641655 44.127860 -32.123899 -39.148912 -9.828064 -1.204760 -2.935870 -3.596915 50.933434 -30.470528 27.812359 5.030964 -76.322907 55.108615 -14.153815 0.000000 0.000000 0.000000 -53.681153 53.797117 -19.090440 -96.555465 6.358327 -17.892699 0.000000 0.000000 0.000000 -118.415728 -27.986051 15.473592 151.051823 -49.662485 -29.446556 0.000000 0.000000 0.000000 -129.684697 -9.305874 108.368382 176.583867 13.402314 -1.235311 0.000000 0.000000 0.000000 -44.189120 25.720081 4.171717 65.721791 15.333547 -22.778003 0.000000 0.000000 0.000000 9.946509 -21.904869 40.376154 48.584589 45.304867 37.853972 -3.374219 16.270523 -1.287757 -8.902193 6.537395 -37.733461 14.976882 -14.744582 -1.155231 15.277345 51.811234 -29.879436 0.000000 0.000000 0.000000 27.474077 16.582697 -1.422001 19.557808 34.528360 -26.969988 0.000000 0.000000 0.000000 13.194993 37.237657 -32.814157 17.064907 -1.870353 2.307476 0.000000 0.000000 0.000000 26.439450 22.579768 -2.457441 -1.991906 24.128760 -35.783236 0.000000 0.000000 0.000000 -3.673503 2.318203 6.447804 -6.066683 -6.098011 15.950586 0.000000 0.000000 0.000000 
-0.291122 1.011372 1.377228 151.373203 72.841703 144.936610 -11.412285 -0.767077 14.811299 -1.565589 -4.639858 -10.113729 26.646590 11.137144 43.430612 0.000000 0.000000 0.000000 -0.240493 -2.951847 -8.399504 -18.468209 -2.012105 17.856135 64.833527 1.652289 28.305437 0.000000 0.000000 0.000000 10.088920 -3.608407 12.038319 -40.581923 -10.291146 -10.239085 41.897305 51.299861 29.431209 -6.107556 -6.165481 1.426493 0.000000 0.000000 0.000000 -5.057435 -29.735227 -36.734526 -58.910564 45.537745 -34.669178 -42.111811 -19.075710 2.045275 0.101246 2.301065 46.201546 -39.911595 10.491842 -5.040817 -6.015950 12.424856 13.710892 0.000000 0.000000 0.000000 -45.855484 15.036155 -12.485507 -24.306043 4.893751 -10.200012 0.000000 0.000000 0.000000 -150.206271 54.228925 -178.074887 -88.580979 -4.279104 80.821740 0.000000 0.000000 0.000000 -44.717698 9.727403 -14.863083 -24.457235 2.796616 10.747787 0.000000 0.000000 0.000000 -36.712529 22.462834 9.440549 28.729444 0.795717 -12.792204 0.000000 0.000000 0.000000 7.896047 -18.642649 41.134701 48.088880 45.352750 37.740837 -2.787294 20.875408 -1.255938 -5.506740 0.407490 -33.805003 9.812054 -10.332898 0.121080 32.020165 57.597688 -12.916160 0.000000 0.000000 0.000000 22.631614 19.684939 -3.748175 15.047093 35.883417 -29.953273 0.000000 0.000000 0.000000 -3.780681 37.805217 -41.965442 -0.086658 -2.073798 4.920158 0.000000 0.000000 0.000000 18.937092 27.738940 -7.696187 -8.989121 13.887268 -29.372799 0.000000 0.000000 0.000000 -17.632144 -22.704004 6.120268 14.065281 11.560496 1.011602 0.000000 0.000000 0.000000 
